# xmcd
#
# Track frame offsets:
#	150
#	22032
#	28870
#	32807
#	39525
#	44177
#	50135
#	55480
#	61315
#	66625
#	69635
#	75692
#	85865
#	91732
#	97045
#	102397
#	108210
#	113657
#	121172
#	126382
#	134992
#	140110
#	146545
#	153275
#	157802
#	165432
#	169017
#	173195
#	180695
#	186932
#	194340
#	202877
#	206972
#	212542
#	217517
#	226255
#	229227
#	234275
#	238367
#	245557
#	256682
#	270082
#	274657
#	281630
#	289655
#	307682
#
# Disc length: 4405 seconds
#
# Revision: 1
# Processed by: cddbd v1.5.1PL0 Copyright (c) Steve Scherf et al.
# Submitted via: CDex 1.50Beta5
#
DISCID=a611332e
DTITLE=サウンドトラック - どきどきポヤッチオ プエルコルダンPの物語
DYEAR=1900
DGENRE=Other
TTITLE0=川菜翠/生きてるって素晴らしい
TTITLE1=サウンドトラック/どきどきポヤッチオ
TTITLE2=ミニドラマ/「ねーさんからの手紙」
TTITLE3=サウンドトラック/もうすぐ会えるね
TTITLE4=サウンドトラック/マラカス少年とプレルコルダンバンド
TTITLE5=ミニドラマ/「おはよう」
TTITLE6=サウンドトラック/なんかいいコトありそうだ
TTITLE7=サウンドトラック/森の中は木の実がいっぱい
TTITLE8=サウンドトラック/なんかいるのか?
TTITLE9=ミニドラマ/「背中のぬくもり」
TTITLE10=サウンドトラック/ユリアの想い
TTITLE11=サウンドトラック/どきどき
TTITLE12=サウンドトラック/どきどき×2
TTITLE13=サウンドトラック/マリアねーさんの手紙
TTITLE14=ミニドラマ/「まんぷくぷー」
TTITLE15=サウンドトラック/何を買うのか悩むのだ
TTITLE16=サウンドトラック/みんな友達
TTITLE17=サウンドトラック/みんな友達Ver.2
TTITLE18=サウンドトラック/おやすみ
TTITLE19=ミニドラマ/「好き好き」
TTITLE20=サウンドトラック/ユリアの想いVer.フォルカー
TTITLE21=サウンドトラック/楽しいおフロ
TTITLE22=サウンドトラック/今日はお休み
TTITLE23=サウンドトラック/ねぇ教えておくれ
TTITLE24=ミニドラマ/「あーれー」
TTITLE25=サウンドトラック/パンツ泥棒
TTITLE26=サウンドトラック/こみ上げるこの怒り!
TTITLE27=サウンドトラック/どきどきさせてよ
TTITLE28=サウンドトラック/悲しみが止まらない
TTITLE29=ミニドラマ/「プリティマリア」
TTITLE30=サウンドトラック/うれしいな楽しいな
TTITLE31=サウンドトラック/こりゃゆかい
TTITLE32=サウンドトラック/大好き!!
TTITLE33=ミニドラマ/「しあわせのカタチ」
TTITLE34=サウンドトラック/海は広いな大きいな
TTITLE35=サウンドトラック/大ピンチ!!
TTITLE36=サウンドトラック/バザールのテーマ
TTITLE37=ミニドラマ/「ありがとう」
TTITLE38=サウンドトラック/ねーさんは世界一
TTITLE39=サウンドトラック/ねーさんは世界一Ver.2
TTITLE40=サウンドトラック/どきどきが止まらない
TTITLE41=ミニドラマ/「おやすみ」
TTITLE42=サウンドトラック/きっとまたあえるネ!!
TTITLE43=サウンドトラック/ずっと二人で
TTITLE44=ミニドラマ/「ペッタンコおんステージ
TTITLE45=川菜翠/あの頃の君を忘れないで
EXTD=
EXTT0=
EXTT1=
EXTT2=
EXTT3=
EXTT4=
EXTT5=
EXTT6=
EXTT7=
EXTT8=
EXTT9=
EXTT10=
EXTT11=
EXTT12=
EXTT13=
EXTT14=
EXTT15=
EXTT16=
EXTT17=
EXTT18=
EXTT19=
EXTT20=
EXTT21=
EXTT22=
EXTT23=
EXTT24=
EXTT25=
EXTT26=
EXTT27=
EXTT28=
EXTT29=
EXTT30=
EXTT31=
EXTT32=
EXTT33=
EXTT34=
EXTT35=
EXTT36=
EXTT37=
EXTT38=
EXTT39=
EXTT40=
EXTT41=
EXTT42=
EXTT43=
EXTT44=
EXTT45=
PLAYORDER=
